<mxfile host="app.diagrams.net" agent="Mozilla/5.0 (Windows NT 10.0; Win64; x64) AppleWebKit/537.36 (KHTML, like Gecko) Chrome/141.0.0.0 Safari/537.36" version="28.2.6">
  <diagram name="PÃ¡gina-1" id="Z2QCJFO3C0hVohhDv-Mr">
    <mxGraphModel grid="1" page="1" gridSize="10" guides="1" tooltips="1" connect="1" arrows="1" fold="1" pageScale="1" pageWidth="850" pageHeight="1100" math="0" shadow="0">
      <root>
        <mxCell id="0" />
        <mxCell id="1" parent="0" />
        <mxCell id="ohGMHfW5FGF4X8Y3I0PY-35" style="edgeStyle=orthogonalEdgeStyle;rounded=0;orthogonalLoop=1;jettySize=auto;html=1;endArrow=none;endFill=0;" edge="1" parent="1" source="asvjOmH1Z3Ous6mw3SNr-1" target="ohGMHfW5FGF4X8Y3I0PY-32">
          <mxGeometry relative="1" as="geometry" />
        </mxCell>
        <mxCell id="ohGMHfW5FGF4X8Y3I0PY-37" style="edgeStyle=orthogonalEdgeStyle;rounded=0;orthogonalLoop=1;jettySize=auto;html=1;entryX=0.5;entryY=0;entryDx=0;entryDy=0;endArrow=none;endFill=0;" edge="1" parent="1" source="asvjOmH1Z3Ous6mw3SNr-1" target="ohGMHfW5FGF4X8Y3I0PY-33">
          <mxGeometry relative="1" as="geometry" />
        </mxCell>
        <mxCell id="pYZzTUfY7_9FYyTKPgv2-6" value="&lt;b&gt;1:1&lt;/b&gt;" style="edgeLabel;html=1;align=center;verticalAlign=middle;resizable=0;points=[];fontSize=12;" vertex="1" connectable="0" parent="ohGMHfW5FGF4X8Y3I0PY-37">
          <mxGeometry x="-0.5797" y="1" relative="1" as="geometry">
            <mxPoint x="-21" y="-26" as="offset" />
          </mxGeometry>
        </mxCell>
        <mxCell id="pYZzTUfY7_9FYyTKPgv2-17" value="&lt;b&gt;1:N&lt;/b&gt;" style="edgeLabel;html=1;align=center;verticalAlign=middle;resizable=0;points=[];fontSize=12;" vertex="1" connectable="0" parent="ohGMHfW5FGF4X8Y3I0PY-37">
          <mxGeometry x="-0.657" y="-2" relative="1" as="geometry">
            <mxPoint x="22" y="-19" as="offset" />
          </mxGeometry>
        </mxCell>
        <mxCell id="asvjOmH1Z3Ous6mw3SNr-1" value="&lt;b&gt;Zona&lt;/b&gt;" style="shape=process;whiteSpace=wrap;html=1;backgroundOutline=1;fillColor=#E0D5E7;strokeColor=light-dark(#5D078C,#5D078C);" vertex="1" parent="1">
          <mxGeometry x="460" y="50" width="120" height="60" as="geometry" />
        </mxCell>
        <mxCell id="ohGMHfW5FGF4X8Y3I0PY-34" style="edgeStyle=orthogonalEdgeStyle;rounded=0;orthogonalLoop=1;jettySize=auto;html=1;entryX=0.5;entryY=1;entryDx=0;entryDy=0;endArrow=none;endFill=0;" edge="1" parent="1" source="asvjOmH1Z3Ous6mw3SNr-2" target="ohGMHfW5FGF4X8Y3I0PY-32">
          <mxGeometry relative="1" as="geometry" />
        </mxCell>
        <mxCell id="pYZzTUfY7_9FYyTKPgv2-7" value="&lt;b&gt;1:N&lt;/b&gt;" style="edgeLabel;html=1;align=center;verticalAlign=middle;resizable=0;points=[];fontSize=12;" vertex="1" connectable="0" parent="ohGMHfW5FGF4X8Y3I0PY-34">
          <mxGeometry x="-0.6655" relative="1" as="geometry">
            <mxPoint x="-32" y="-10" as="offset" />
          </mxGeometry>
        </mxCell>
        <mxCell id="ohGMHfW5FGF4X8Y3I0PY-43" style="edgeStyle=orthogonalEdgeStyle;rounded=0;orthogonalLoop=1;jettySize=auto;html=1;endArrow=none;endFill=0;" edge="1" parent="1" source="asvjOmH1Z3Ous6mw3SNr-2">
          <mxGeometry relative="1" as="geometry">
            <mxPoint x="210" y="440" as="targetPoint" />
          </mxGeometry>
        </mxCell>
        <mxCell id="ohGMHfW5FGF4X8Y3I0PY-80" style="edgeStyle=orthogonalEdgeStyle;rounded=0;orthogonalLoop=1;jettySize=auto;html=1;entryX=0.5;entryY=0;entryDx=0;entryDy=0;endArrow=none;endFill=0;" edge="1" parent="1" source="asvjOmH1Z3Ous6mw3SNr-2" target="ohGMHfW5FGF4X8Y3I0PY-78">
          <mxGeometry relative="1" as="geometry" />
        </mxCell>
        <mxCell id="pYZzTUfY7_9FYyTKPgv2-8" value="&lt;b&gt;1:1&lt;/b&gt;" style="edgeLabel;html=1;align=center;verticalAlign=middle;resizable=0;points=[];fontSize=12;" vertex="1" connectable="0" parent="ohGMHfW5FGF4X8Y3I0PY-80">
          <mxGeometry x="0.0091" y="-4" relative="1" as="geometry">
            <mxPoint x="14" y="-20" as="offset" />
          </mxGeometry>
        </mxCell>
        <mxCell id="asvjOmH1Z3Ous6mw3SNr-2" value="&lt;b&gt;Empleado&lt;/b&gt;" style="rounded=0;whiteSpace=wrap;html=1;fillColor=#E0D5E7;strokeColor=light-dark(#5D078C,#5D078C);" vertex="1" parent="1">
          <mxGeometry x="230" y="410" width="120" height="60" as="geometry" />
        </mxCell>
        <mxCell id="ohGMHfW5FGF4X8Y3I0PY-3" style="edgeStyle=orthogonalEdgeStyle;rounded=0;orthogonalLoop=1;jettySize=auto;html=1;entryX=0;entryY=0.5;entryDx=0;entryDy=0;endArrow=none;endFill=0;" edge="1" parent="1" source="asvjOmH1Z3Ous6mw3SNr-3" target="ohGMHfW5FGF4X8Y3I0PY-2">
          <mxGeometry relative="1" as="geometry" />
        </mxCell>
        <mxCell id="pYZzTUfY7_9FYyTKPgv2-4" value="&lt;b&gt;1:1&lt;/b&gt;" style="edgeLabel;html=1;align=center;verticalAlign=middle;resizable=0;points=[];fontSize=12;" vertex="1" connectable="0" parent="ohGMHfW5FGF4X8Y3I0PY-3">
          <mxGeometry x="-0.4949" y="-1" relative="1" as="geometry">
            <mxPoint x="-13" y="-11" as="offset" />
          </mxGeometry>
        </mxCell>
        <mxCell id="ohGMHfW5FGF4X8Y3I0PY-11" style="edgeStyle=orthogonalEdgeStyle;rounded=0;orthogonalLoop=1;jettySize=auto;html=1;endArrow=none;endFill=0;" edge="1" parent="1" source="asvjOmH1Z3Ous6mw3SNr-3">
          <mxGeometry relative="1" as="geometry">
            <mxPoint x="140" y="20" as="targetPoint" />
          </mxGeometry>
        </mxCell>
        <mxCell id="asvjOmH1Z3Ous6mw3SNr-3" value="&lt;b&gt;Vivero&lt;/b&gt;" style="rounded=0;whiteSpace=wrap;html=1;fillColor=#E0D5E7;strokeColor=light-dark(#5D078C,#5D078C);" vertex="1" parent="1">
          <mxGeometry x="80" y="50" width="120" height="60" as="geometry" />
        </mxCell>
        <mxCell id="ohGMHfW5FGF4X8Y3I0PY-72" style="edgeStyle=orthogonalEdgeStyle;rounded=0;orthogonalLoop=1;jettySize=auto;html=1;endArrow=none;endFill=0;entryX=0;entryY=0.5;entryDx=0;entryDy=0;" edge="1" parent="1" source="asvjOmH1Z3Ous6mw3SNr-4" target="ohGMHfW5FGF4X8Y3I0PY-68">
          <mxGeometry relative="1" as="geometry">
            <mxPoint x="790" y="450" as="targetPoint" />
          </mxGeometry>
        </mxCell>
        <mxCell id="ohGMHfW5FGF4X8Y3I0PY-82" style="edgeStyle=orthogonalEdgeStyle;rounded=0;orthogonalLoop=1;jettySize=auto;html=1;entryX=0.5;entryY=0;entryDx=0;entryDy=0;endArrow=none;endFill=0;" edge="1" parent="1" source="asvjOmH1Z3Ous6mw3SNr-4" target="ohGMHfW5FGF4X8Y3I0PY-79">
          <mxGeometry relative="1" as="geometry">
            <mxPoint x="690" y="530" as="targetPoint" />
          </mxGeometry>
        </mxCell>
        <mxCell id="pYZzTUfY7_9FYyTKPgv2-11" value="&lt;b&gt;1:N&lt;/b&gt;" style="edgeLabel;html=1;align=center;verticalAlign=middle;resizable=0;points=[];fontSize=12;" vertex="1" connectable="0" parent="ohGMHfW5FGF4X8Y3I0PY-82">
          <mxGeometry x="-0.0288" y="-1" relative="1" as="geometry">
            <mxPoint x="-14" y="-19" as="offset" />
          </mxGeometry>
        </mxCell>
        <mxCell id="asvjOmH1Z3Ous6mw3SNr-4" value="&lt;b&gt;Producto&lt;/b&gt;" style="rounded=0;whiteSpace=wrap;html=1;fillColor=#E0D5E7;strokeColor=light-dark(#5D078C,#5D078C);" vertex="1" parent="1">
          <mxGeometry x="630" y="420" width="120" height="60" as="geometry" />
        </mxCell>
        <mxCell id="ohGMHfW5FGF4X8Y3I0PY-86" style="edgeStyle=orthogonalEdgeStyle;rounded=0;orthogonalLoop=1;jettySize=auto;html=1;endArrow=none;endFill=0;" edge="1" parent="1" source="asvjOmH1Z3Ous6mw3SNr-5">
          <mxGeometry relative="1" as="geometry">
            <mxPoint x="500" y="610" as="targetPoint" />
          </mxGeometry>
        </mxCell>
        <mxCell id="ohGMHfW5FGF4X8Y3I0PY-90" style="edgeStyle=orthogonalEdgeStyle;rounded=0;orthogonalLoop=1;jettySize=auto;html=1;entryX=0.5;entryY=0;entryDx=0;entryDy=0;endArrow=none;endFill=0;" edge="1" parent="1" source="asvjOmH1Z3Ous6mw3SNr-5" target="ohGMHfW5FGF4X8Y3I0PY-89">
          <mxGeometry relative="1" as="geometry" />
        </mxCell>
        <mxCell id="pYZzTUfY7_9FYyTKPgv2-12" value="&lt;b&gt;0:N&lt;/b&gt;" style="edgeLabel;html=1;align=center;verticalAlign=middle;resizable=0;points=[];fontSize=12;" vertex="1" connectable="0" parent="ohGMHfW5FGF4X8Y3I0PY-90">
          <mxGeometry x="-0.4894" y="2" relative="1" as="geometry">
            <mxPoint x="8" as="offset" />
          </mxGeometry>
        </mxCell>
        <mxCell id="asvjOmH1Z3Ous6mw3SNr-5" value="&lt;b&gt;Pedido&lt;/b&gt;" style="rounded=0;whiteSpace=wrap;html=1;fillColor=#E0D5E7;strokeColor=light-dark(#5D078C,#5D078C);" vertex="1" parent="1">
          <mxGeometry x="440" y="620" width="120" height="60" as="geometry" />
        </mxCell>
        <mxCell id="ohGMHfW5FGF4X8Y3I0PY-96" style="edgeStyle=orthogonalEdgeStyle;rounded=0;orthogonalLoop=1;jettySize=auto;html=1;entryX=0.5;entryY=1;entryDx=0;entryDy=0;endArrow=none;endFill=0;" edge="1" parent="1" source="asvjOmH1Z3Ous6mw3SNr-6" target="ohGMHfW5FGF4X8Y3I0PY-94">
          <mxGeometry relative="1" as="geometry" />
        </mxCell>
        <mxCell id="pYZzTUfY7_9FYyTKPgv2-15" value="&lt;b&gt;0:1&lt;/b&gt;" style="edgeLabel;html=1;align=center;verticalAlign=middle;resizable=0;points=[];fontSize=12;" vertex="1" connectable="0" parent="ohGMHfW5FGF4X8Y3I0PY-96">
          <mxGeometry x="0.3703" y="3" relative="1" as="geometry">
            <mxPoint x="13" y="4" as="offset" />
          </mxGeometry>
        </mxCell>
        <mxCell id="ohGMHfW5FGF4X8Y3I0PY-102" style="edgeStyle=orthogonalEdgeStyle;rounded=0;orthogonalLoop=1;jettySize=auto;html=1;endArrow=none;endFill=0;" edge="1" parent="1" source="asvjOmH1Z3Ous6mw3SNr-6">
          <mxGeometry relative="1" as="geometry">
            <mxPoint x="500" y="1130" as="targetPoint" />
          </mxGeometry>
        </mxCell>
        <mxCell id="asvjOmH1Z3Ous6mw3SNr-6" value="&lt;b&gt;Tajinaste Plus&lt;/b&gt;" style="rounded=0;whiteSpace=wrap;html=1;fillColor=#E0D5E7;strokeColor=light-dark(#5D078C,#5D078C);" vertex="1" parent="1">
          <mxGeometry x="440" y="1030" width="120" height="60" as="geometry" />
        </mxCell>
        <mxCell id="ohGMHfW5FGF4X8Y3I0PY-12" style="edgeStyle=orthogonalEdgeStyle;rounded=0;orthogonalLoop=1;jettySize=auto;html=1;endArrow=none;endFill=0;" edge="1" parent="1" source="ohGMHfW5FGF4X8Y3I0PY-1">
          <mxGeometry relative="1" as="geometry">
            <mxPoint x="90.00000000000006" y="20" as="targetPoint" />
          </mxGeometry>
        </mxCell>
        <mxCell id="ohGMHfW5FGF4X8Y3I0PY-1" value="&lt;font style=&quot;color: rgb(255, 255, 255);&quot;&gt;&lt;b&gt;Nombre vivero&lt;/b&gt;&lt;/font&gt;" style="ellipse;whiteSpace=wrap;html=1;fillColor=light-dark(#5D078C,#5D078C);strokeColor=light-dark(#0000FF,#0000FF);" vertex="1" parent="1">
          <mxGeometry x="40" y="-60" width="90" height="60" as="geometry" />
        </mxCell>
        <mxCell id="ohGMHfW5FGF4X8Y3I0PY-4" style="edgeStyle=orthogonalEdgeStyle;rounded=0;orthogonalLoop=1;jettySize=auto;html=1;endArrow=none;endFill=0;" edge="1" parent="1" source="ohGMHfW5FGF4X8Y3I0PY-2" target="asvjOmH1Z3Ous6mw3SNr-1">
          <mxGeometry relative="1" as="geometry" />
        </mxCell>
        <mxCell id="pYZzTUfY7_9FYyTKPgv2-5" value="&lt;b&gt;1:N&lt;/b&gt;" style="edgeLabel;html=1;align=center;verticalAlign=middle;resizable=0;points=[];fontSize=12;" vertex="1" connectable="0" parent="ohGMHfW5FGF4X8Y3I0PY-4">
          <mxGeometry x="-0.004" y="-3" relative="1" as="geometry">
            <mxPoint x="25" y="-13" as="offset" />
          </mxGeometry>
        </mxCell>
        <mxCell id="ohGMHfW5FGF4X8Y3I0PY-2" value="&lt;b&gt;Formado&lt;/b&gt;" style="rhombus;whiteSpace=wrap;html=1;fillColor=#FFFFCC;strokeColor=#FFFF00;" vertex="1" parent="1">
          <mxGeometry x="290" y="40" width="80" height="80" as="geometry" />
        </mxCell>
        <mxCell id="ohGMHfW5FGF4X8Y3I0PY-13" style="edgeStyle=orthogonalEdgeStyle;rounded=0;orthogonalLoop=1;jettySize=auto;html=1;endArrow=none;endFill=0;" edge="1" parent="1" source="ohGMHfW5FGF4X8Y3I0PY-5">
          <mxGeometry relative="1" as="geometry">
            <mxPoint x="230" y="20" as="targetPoint" />
          </mxGeometry>
        </mxCell>
        <mxCell id="ohGMHfW5FGF4X8Y3I0PY-17" style="edgeStyle=orthogonalEdgeStyle;rounded=0;orthogonalLoop=1;jettySize=auto;html=1;endArrow=none;endFill=0;" edge="1" parent="1" source="ohGMHfW5FGF4X8Y3I0PY-5">
          <mxGeometry relative="1" as="geometry">
            <mxPoint x="230" y="-100" as="targetPoint" />
            <Array as="points">
              <mxPoint x="235" y="-100" />
            </Array>
          </mxGeometry>
        </mxCell>
        <mxCell id="ohGMHfW5FGF4X8Y3I0PY-5" value="&lt;b&gt;UbicaciÃ³n&lt;/b&gt;" style="ellipse;whiteSpace=wrap;html=1;fillColor=#E0D5E7;strokeColor=light-dark(#5D078C,#5D078C);dashed=1;" vertex="1" parent="1">
          <mxGeometry x="190" y="-60" width="90" height="60" as="geometry" />
        </mxCell>
        <mxCell id="ohGMHfW5FGF4X8Y3I0PY-18" style="edgeStyle=orthogonalEdgeStyle;rounded=0;orthogonalLoop=1;jettySize=auto;html=1;endArrow=none;endFill=0;" edge="1" parent="1" source="ohGMHfW5FGF4X8Y3I0PY-6">
          <mxGeometry relative="1" as="geometry">
            <mxPoint x="180" y="-100" as="targetPoint" />
          </mxGeometry>
        </mxCell>
        <mxCell id="ohGMHfW5FGF4X8Y3I0PY-6" value="&lt;b&gt;Latitud&amp;nbsp;&lt;/b&gt;" style="ellipse;whiteSpace=wrap;html=1;strokeColor=light-dark(#5D078C,#5D078C);fillColor=#E0D5E7;" vertex="1" parent="1">
          <mxGeometry x="140" y="-170" width="80" height="50" as="geometry" />
        </mxCell>
        <mxCell id="ohGMHfW5FGF4X8Y3I0PY-19" style="edgeStyle=orthogonalEdgeStyle;rounded=0;orthogonalLoop=1;jettySize=auto;html=1;endArrow=none;endFill=0;" edge="1" parent="1" source="ohGMHfW5FGF4X8Y3I0PY-7">
          <mxGeometry relative="1" as="geometry">
            <mxPoint x="290" y="-100" as="targetPoint" />
            <Array as="points">
              <mxPoint x="290" y="-100" />
            </Array>
          </mxGeometry>
        </mxCell>
        <mxCell id="ohGMHfW5FGF4X8Y3I0PY-7" value="&lt;b&gt;Longitud&lt;/b&gt;" style="ellipse;whiteSpace=wrap;html=1;fillColor=#E0D5E7;strokeColor=light-dark(#5D078C,#5D078C);" vertex="1" parent="1">
          <mxGeometry x="250" y="-170" width="80" height="50" as="geometry" />
        </mxCell>
        <mxCell id="ohGMHfW5FGF4X8Y3I0PY-10" value="" style="endArrow=none;html=1;rounded=0;" edge="1" parent="1">
          <mxGeometry width="50" height="50" relative="1" as="geometry">
            <mxPoint x="230" y="20" as="sourcePoint" />
            <mxPoint x="90" y="20" as="targetPoint" />
            <Array as="points">
              <mxPoint x="195" y="20" />
            </Array>
          </mxGeometry>
        </mxCell>
        <mxCell id="ohGMHfW5FGF4X8Y3I0PY-16" value="" style="endArrow=none;html=1;rounded=0;" edge="1" parent="1">
          <mxGeometry width="50" height="50" relative="1" as="geometry">
            <mxPoint x="290" y="-100" as="sourcePoint" />
            <mxPoint x="180" y="-100" as="targetPoint" />
            <Array as="points">
              <mxPoint x="275" y="-100" />
            </Array>
          </mxGeometry>
        </mxCell>
        <mxCell id="ohGMHfW5FGF4X8Y3I0PY-20" value="&lt;font style=&quot;color: rgb(255, 255, 255);&quot;&gt;&lt;b&gt;Nombre zona&lt;/b&gt;&lt;/font&gt;" style="ellipse;whiteSpace=wrap;html=1;fillColor=light-dark(#5D078C,#5D078C);strokeColor=light-dark(#0000FF,#0000FF);" vertex="1" parent="1">
          <mxGeometry x="410" y="-50" width="80" height="50" as="geometry" />
        </mxCell>
        <mxCell id="ohGMHfW5FGF4X8Y3I0PY-21" style="edgeStyle=orthogonalEdgeStyle;rounded=0;orthogonalLoop=1;jettySize=auto;html=1;endArrow=none;endFill=0;" edge="1" parent="1" source="ohGMHfW5FGF4X8Y3I0PY-22">
          <mxGeometry relative="1" as="geometry">
            <mxPoint x="595" y="-100" as="targetPoint" />
            <Array as="points">
              <mxPoint x="588" y="-74" />
              <mxPoint x="588" y="-100" />
            </Array>
          </mxGeometry>
        </mxCell>
        <mxCell id="ohGMHfW5FGF4X8Y3I0PY-22" value="&lt;b&gt;UbicaciÃ³n&lt;/b&gt;" style="ellipse;whiteSpace=wrap;html=1;dashed=1;fillColor=#E0D5E7;strokeColor=light-dark(#5D078C,#5D078C);" vertex="1" parent="1">
          <mxGeometry x="550" y="-50" width="75" height="50" as="geometry" />
        </mxCell>
        <mxCell id="ohGMHfW5FGF4X8Y3I0PY-23" style="edgeStyle=orthogonalEdgeStyle;rounded=0;orthogonalLoop=1;jettySize=auto;html=1;endArrow=none;endFill=0;" edge="1" parent="1" source="ohGMHfW5FGF4X8Y3I0PY-24">
          <mxGeometry relative="1" as="geometry">
            <mxPoint x="545" y="-100" as="targetPoint" />
          </mxGeometry>
        </mxCell>
        <mxCell id="ohGMHfW5FGF4X8Y3I0PY-24" value="&lt;b&gt;Latitud&amp;nbsp;&lt;/b&gt;" style="ellipse;whiteSpace=wrap;html=1;fillColor=#E0D5E7;strokeColor=light-dark(#5D078C,#5D078C);" vertex="1" parent="1">
          <mxGeometry x="505" y="-160" width="75" height="40" as="geometry" />
        </mxCell>
        <mxCell id="ohGMHfW5FGF4X8Y3I0PY-25" style="edgeStyle=orthogonalEdgeStyle;rounded=0;orthogonalLoop=1;jettySize=auto;html=1;endArrow=none;endFill=0;" edge="1" parent="1" source="ohGMHfW5FGF4X8Y3I0PY-26">
          <mxGeometry relative="1" as="geometry">
            <mxPoint x="630" y="-100" as="targetPoint" />
          </mxGeometry>
        </mxCell>
        <mxCell id="ohGMHfW5FGF4X8Y3I0PY-26" value="&lt;b&gt;Longitud&lt;/b&gt;" style="ellipse;whiteSpace=wrap;html=1;fillColor=#E0D5E7;strokeColor=light-dark(#5D078C,#5D078C);" vertex="1" parent="1">
          <mxGeometry x="600" y="-160" width="65" height="40" as="geometry" />
        </mxCell>
        <mxCell id="ohGMHfW5FGF4X8Y3I0PY-27" value="" style="endArrow=none;html=1;rounded=0;" edge="1" parent="1">
          <mxGeometry width="50" height="50" relative="1" as="geometry">
            <mxPoint x="620" y="-100" as="sourcePoint" />
            <mxPoint x="545" y="-100" as="targetPoint" />
            <Array as="points">
              <mxPoint x="630" y="-100" />
            </Array>
          </mxGeometry>
        </mxCell>
        <mxCell id="ohGMHfW5FGF4X8Y3I0PY-28" style="edgeStyle=orthogonalEdgeStyle;rounded=0;orthogonalLoop=1;jettySize=auto;html=1;endArrow=none;endFill=0;" edge="1" parent="1">
          <mxGeometry relative="1" as="geometry">
            <mxPoint x="499.58" y="20" as="targetPoint" />
            <mxPoint x="499.58" y="50" as="sourcePoint" />
          </mxGeometry>
        </mxCell>
        <mxCell id="ohGMHfW5FGF4X8Y3I0PY-29" style="edgeStyle=orthogonalEdgeStyle;rounded=0;orthogonalLoop=1;jettySize=auto;html=1;endArrow=none;endFill=0;" edge="1" parent="1">
          <mxGeometry relative="1" as="geometry">
            <mxPoint x="449.58000000000004" y="20" as="targetPoint" />
            <mxPoint x="449.58" as="sourcePoint" />
          </mxGeometry>
        </mxCell>
        <mxCell id="ohGMHfW5FGF4X8Y3I0PY-30" style="edgeStyle=orthogonalEdgeStyle;rounded=0;orthogonalLoop=1;jettySize=auto;html=1;endArrow=none;endFill=0;" edge="1" parent="1">
          <mxGeometry relative="1" as="geometry">
            <mxPoint x="589.58" y="20" as="targetPoint" />
            <mxPoint x="589.58" as="sourcePoint" />
          </mxGeometry>
        </mxCell>
        <mxCell id="ohGMHfW5FGF4X8Y3I0PY-31" value="" style="endArrow=none;html=1;rounded=0;" edge="1" parent="1">
          <mxGeometry width="50" height="50" relative="1" as="geometry">
            <mxPoint x="589.58" y="20" as="sourcePoint" />
            <mxPoint x="449.58" y="20" as="targetPoint" />
            <Array as="points">
              <mxPoint x="554.58" y="20" />
            </Array>
          </mxGeometry>
        </mxCell>
        <mxCell id="ohGMHfW5FGF4X8Y3I0PY-49" style="edgeStyle=orthogonalEdgeStyle;rounded=0;orthogonalLoop=1;jettySize=auto;html=1;endArrow=none;endFill=0;" edge="1" parent="1" source="ohGMHfW5FGF4X8Y3I0PY-32">
          <mxGeometry relative="1" as="geometry">
            <mxPoint x="390" y="240" as="targetPoint" />
          </mxGeometry>
        </mxCell>
        <mxCell id="ohGMHfW5FGF4X8Y3I0PY-32" value="&lt;b&gt;Pertenece&lt;/b&gt;" style="rhombus;whiteSpace=wrap;html=1;fillColor=#FFFFCC;strokeColor=#FFFF00;" vertex="1" parent="1">
          <mxGeometry x="400" y="200" width="80" height="80" as="geometry" />
        </mxCell>
        <mxCell id="ohGMHfW5FGF4X8Y3I0PY-65" style="edgeStyle=orthogonalEdgeStyle;rounded=0;orthogonalLoop=1;jettySize=auto;html=1;entryX=0;entryY=0.5;entryDx=0;entryDy=0;endArrow=none;endFill=0;" edge="1" parent="1" source="ohGMHfW5FGF4X8Y3I0PY-33" target="asvjOmH1Z3Ous6mw3SNr-4">
          <mxGeometry relative="1" as="geometry">
            <Array as="points">
              <mxPoint x="600" y="450" />
            </Array>
          </mxGeometry>
        </mxCell>
        <mxCell id="pYZzTUfY7_9FYyTKPgv2-16" value="&lt;b&gt;1:N&lt;/b&gt;" style="edgeLabel;html=1;align=center;verticalAlign=middle;resizable=0;points=[];fontSize=12;" vertex="1" connectable="0" parent="ohGMHfW5FGF4X8Y3I0PY-65">
          <mxGeometry x="0.7576" relative="1" as="geometry">
            <mxPoint x="9" y="-10" as="offset" />
          </mxGeometry>
        </mxCell>
        <mxCell id="ohGMHfW5FGF4X8Y3I0PY-66" style="edgeStyle=orthogonalEdgeStyle;rounded=0;orthogonalLoop=1;jettySize=auto;html=1;endArrow=none;endFill=0;" edge="1" parent="1">
          <mxGeometry relative="1" as="geometry">
            <mxPoint x="625" y="240" as="sourcePoint" />
            <mxPoint x="710" y="240" as="targetPoint" />
          </mxGeometry>
        </mxCell>
        <mxCell id="ohGMHfW5FGF4X8Y3I0PY-33" value="&lt;b&gt;Asignado&lt;/b&gt;" style="rhombus;whiteSpace=wrap;html=1;fillColor=#FFFFCC;strokeColor=#FFFF00;" vertex="1" parent="1">
          <mxGeometry x="560" y="200" width="80" height="80" as="geometry" />
        </mxCell>
        <mxCell id="ohGMHfW5FGF4X8Y3I0PY-44" style="edgeStyle=orthogonalEdgeStyle;rounded=0;orthogonalLoop=1;jettySize=auto;html=1;endArrow=none;endFill=0;" edge="1" parent="1" source="ohGMHfW5FGF4X8Y3I0PY-40">
          <mxGeometry relative="1" as="geometry">
            <mxPoint x="210" y="400" as="targetPoint" />
          </mxGeometry>
        </mxCell>
        <mxCell id="ohGMHfW5FGF4X8Y3I0PY-40" value="&lt;b&gt;&lt;font style=&quot;color: rgb(255, 255, 255);&quot;&gt;DNI&lt;/font&gt;&lt;/b&gt;" style="ellipse;whiteSpace=wrap;html=1;fillColor=light-dark(#5D078C,#5D078C);strokeColor=light-dark(#0000FF,#0000FF);" vertex="1" parent="1">
          <mxGeometry x="110" y="370" width="80" height="50" as="geometry" />
        </mxCell>
        <mxCell id="ohGMHfW5FGF4X8Y3I0PY-45" style="edgeStyle=orthogonalEdgeStyle;rounded=0;orthogonalLoop=1;jettySize=auto;html=1;endArrow=none;endFill=0;" edge="1" parent="1" source="ohGMHfW5FGF4X8Y3I0PY-41">
          <mxGeometry relative="1" as="geometry">
            <mxPoint x="210" y="480" as="targetPoint" />
          </mxGeometry>
        </mxCell>
        <mxCell id="ohGMHfW5FGF4X8Y3I0PY-41" value="&lt;b&gt;Nombre empleado&lt;/b&gt;" style="ellipse;whiteSpace=wrap;html=1;fillColor=#E0D5E7;strokeColor=light-dark(#5D078C,#5D078C);" vertex="1" parent="1">
          <mxGeometry x="110" y="460" width="80" height="60" as="geometry" />
        </mxCell>
        <mxCell id="ohGMHfW5FGF4X8Y3I0PY-42" value="" style="endArrow=none;html=1;rounded=0;" edge="1" parent="1">
          <mxGeometry width="50" height="50" relative="1" as="geometry">
            <mxPoint x="210" y="480" as="sourcePoint" />
            <mxPoint x="210" y="400" as="targetPoint" />
          </mxGeometry>
        </mxCell>
        <mxCell id="ohGMHfW5FGF4X8Y3I0PY-53" style="edgeStyle=orthogonalEdgeStyle;rounded=0;orthogonalLoop=1;jettySize=auto;html=1;endArrow=none;endFill=0;" edge="1" parent="1" source="ohGMHfW5FGF4X8Y3I0PY-46">
          <mxGeometry relative="1" as="geometry">
            <mxPoint x="380" y="200.00000000000023" as="targetPoint" />
          </mxGeometry>
        </mxCell>
        <mxCell id="ohGMHfW5FGF4X8Y3I0PY-46" value="&lt;b&gt;Puesto&lt;/b&gt;&lt;div&gt;&lt;b&gt;trabajo&lt;/b&gt;&lt;/div&gt;" style="ellipse;whiteSpace=wrap;html=1;fillColor=#E0D5E7;strokeColor=light-dark(#5D078C,#5D078C);" vertex="1" parent="1">
          <mxGeometry x="265" y="170" width="90" height="60" as="geometry" />
        </mxCell>
        <mxCell id="ohGMHfW5FGF4X8Y3I0PY-52" style="edgeStyle=orthogonalEdgeStyle;rounded=0;orthogonalLoop=1;jettySize=auto;html=1;endArrow=none;endFill=0;" edge="1" parent="1" source="ohGMHfW5FGF4X8Y3I0PY-47">
          <mxGeometry relative="1" as="geometry">
            <mxPoint x="380" y="270.0000000000002" as="targetPoint" />
          </mxGeometry>
        </mxCell>
        <mxCell id="ohGMHfW5FGF4X8Y3I0PY-60" style="edgeStyle=orthogonalEdgeStyle;rounded=0;orthogonalLoop=1;jettySize=auto;html=1;endArrow=none;endFill=0;" edge="1" parent="1" source="ohGMHfW5FGF4X8Y3I0PY-47">
          <mxGeometry relative="1" as="geometry">
            <mxPoint x="240" y="270" as="targetPoint" />
          </mxGeometry>
        </mxCell>
        <mxCell id="ohGMHfW5FGF4X8Y3I0PY-47" value="&lt;b&gt;Ãpoca del aÃ±o&lt;/b&gt;" style="ellipse;whiteSpace=wrap;html=1;fillColor=#E0D5E7;strokeColor=light-dark(#5D078C,#5D078C);" vertex="1" parent="1">
          <mxGeometry x="265" y="240" width="90" height="60" as="geometry" />
        </mxCell>
        <mxCell id="ohGMHfW5FGF4X8Y3I0PY-48" value="" style="endArrow=none;html=1;rounded=0;" edge="1" parent="1">
          <mxGeometry width="50" height="50" relative="1" as="geometry">
            <mxPoint x="380" y="270" as="sourcePoint" />
            <mxPoint x="380" y="200" as="targetPoint" />
          </mxGeometry>
        </mxCell>
        <mxCell id="ohGMHfW5FGF4X8Y3I0PY-61" style="edgeStyle=orthogonalEdgeStyle;rounded=0;orthogonalLoop=1;jettySize=auto;html=1;endArrow=none;endFill=0;" edge="1" parent="1" source="ohGMHfW5FGF4X8Y3I0PY-56">
          <mxGeometry relative="1" as="geometry">
            <mxPoint x="240" y="230" as="targetPoint" />
          </mxGeometry>
        </mxCell>
        <mxCell id="ohGMHfW5FGF4X8Y3I0PY-56" value="&lt;b&gt;Fecha inicio&lt;/b&gt;" style="ellipse;whiteSpace=wrap;html=1;fillColor=#E0D5E7;strokeColor=light-dark(#5D078C,#5D078C);" vertex="1" parent="1">
          <mxGeometry x="120" y="200" width="90" height="60" as="geometry" />
        </mxCell>
        <mxCell id="ohGMHfW5FGF4X8Y3I0PY-62" style="edgeStyle=orthogonalEdgeStyle;rounded=0;orthogonalLoop=1;jettySize=auto;html=1;endArrow=none;endFill=0;" edge="1" parent="1" source="ohGMHfW5FGF4X8Y3I0PY-57">
          <mxGeometry relative="1" as="geometry">
            <mxPoint x="240" y="299.9999999999998" as="targetPoint" />
          </mxGeometry>
        </mxCell>
        <mxCell id="ohGMHfW5FGF4X8Y3I0PY-57" value="&lt;b&gt;Fecha final&lt;/b&gt;" style="ellipse;whiteSpace=wrap;html=1;fillColor=#E0D5E7;strokeColor=light-dark(#5D078C,#5D078C);" vertex="1" parent="1">
          <mxGeometry x="120" y="270" width="90" height="60" as="geometry" />
        </mxCell>
        <mxCell id="ohGMHfW5FGF4X8Y3I0PY-58" value="" style="endArrow=none;html=1;rounded=0;" edge="1" parent="1">
          <mxGeometry width="50" height="50" relative="1" as="geometry">
            <mxPoint x="240" y="300" as="sourcePoint" />
            <mxPoint x="240" y="230" as="targetPoint" />
          </mxGeometry>
        </mxCell>
        <mxCell id="ohGMHfW5FGF4X8Y3I0PY-63" value="&lt;b&gt;Disponibilidad&lt;/b&gt;" style="ellipse;whiteSpace=wrap;html=1;fillColor=#E0D5E7;strokeColor=light-dark(#5D078C,#5D078C);" vertex="1" parent="1">
          <mxGeometry x="710" y="210" width="90" height="60" as="geometry" />
        </mxCell>
        <mxCell id="ohGMHfW5FGF4X8Y3I0PY-73" style="edgeStyle=orthogonalEdgeStyle;rounded=0;orthogonalLoop=1;jettySize=auto;html=1;endArrow=none;endFill=0;" edge="1" parent="1" source="ohGMHfW5FGF4X8Y3I0PY-67">
          <mxGeometry relative="1" as="geometry">
            <mxPoint x="790" y="360" as="targetPoint" />
          </mxGeometry>
        </mxCell>
        <mxCell id="ohGMHfW5FGF4X8Y3I0PY-67" value="&lt;font style=&quot;color: rgb(255, 255, 255);&quot;&gt;&lt;b&gt;CÃ³digo producto&lt;/b&gt;&lt;/font&gt;" style="ellipse;whiteSpace=wrap;html=1;fillColor=light-dark(#5D078C,#5D078C);strokeColor=light-dark(#0000FF,#0000FF);" vertex="1" parent="1">
          <mxGeometry x="810" y="330" width="90" height="60" as="geometry" />
        </mxCell>
        <mxCell id="ohGMHfW5FGF4X8Y3I0PY-68" value="&lt;b&gt;Nombre producto&lt;/b&gt;" style="ellipse;whiteSpace=wrap;html=1;fillColor=#E0D5E7;strokeColor=light-dark(#5D078C,#5D078C);" vertex="1" parent="1">
          <mxGeometry x="810" y="420" width="90" height="60" as="geometry" />
        </mxCell>
        <mxCell id="ohGMHfW5FGF4X8Y3I0PY-75" style="edgeStyle=orthogonalEdgeStyle;rounded=0;orthogonalLoop=1;jettySize=auto;html=1;endArrow=none;endFill=0;" edge="1" parent="1" source="ohGMHfW5FGF4X8Y3I0PY-69">
          <mxGeometry relative="1" as="geometry">
            <mxPoint x="790" y="520.0000000000002" as="targetPoint" />
          </mxGeometry>
        </mxCell>
        <mxCell id="ohGMHfW5FGF4X8Y3I0PY-69" value="&lt;b&gt;Precio&lt;/b&gt;" style="ellipse;whiteSpace=wrap;html=1;fillColor=#E0D5E7;strokeColor=light-dark(#5D078C,#5D078C);" vertex="1" parent="1">
          <mxGeometry x="810" y="490" width="90" height="60" as="geometry" />
        </mxCell>
        <mxCell id="ohGMHfW5FGF4X8Y3I0PY-71" value="" style="endArrow=none;html=1;rounded=0;" edge="1" parent="1">
          <mxGeometry width="50" height="50" relative="1" as="geometry">
            <mxPoint x="790" y="520" as="sourcePoint" />
            <mxPoint x="790" y="360" as="targetPoint" />
          </mxGeometry>
        </mxCell>
        <mxCell id="ohGMHfW5FGF4X8Y3I0PY-81" style="edgeStyle=orthogonalEdgeStyle;rounded=0;orthogonalLoop=1;jettySize=auto;html=1;entryX=0;entryY=0.5;entryDx=0;entryDy=0;endArrow=none;endFill=0;" edge="1" parent="1" source="ohGMHfW5FGF4X8Y3I0PY-78" target="asvjOmH1Z3Ous6mw3SNr-5">
          <mxGeometry relative="1" as="geometry" />
        </mxCell>
        <mxCell id="pYZzTUfY7_9FYyTKPgv2-9" value="&lt;b&gt;0:N&lt;/b&gt;" style="edgeLabel;html=1;align=center;verticalAlign=middle;resizable=0;points=[];fontSize=12;" vertex="1" connectable="0" parent="ohGMHfW5FGF4X8Y3I0PY-81">
          <mxGeometry x="0.6211" relative="1" as="geometry">
            <mxPoint x="21" y="-10" as="offset" />
          </mxGeometry>
        </mxCell>
        <mxCell id="ohGMHfW5FGF4X8Y3I0PY-78" value="&lt;b&gt;Gestiona&lt;/b&gt;" style="rhombus;whiteSpace=wrap;html=1;fillColor=#FFFFCC;strokeColor=#FFFF00;" vertex="1" parent="1">
          <mxGeometry x="250" y="530" width="80" height="80" as="geometry" />
        </mxCell>
        <mxCell id="ohGMHfW5FGF4X8Y3I0PY-79" value="&lt;b&gt;Forma&lt;/b&gt;" style="rhombus;whiteSpace=wrap;html=1;fillColor=#FFFFCC;strokeColor=#FFFF00;" vertex="1" parent="1">
          <mxGeometry x="650" y="540" width="80" height="80" as="geometry" />
        </mxCell>
        <mxCell id="ohGMHfW5FGF4X8Y3I0PY-83" style="edgeStyle=orthogonalEdgeStyle;rounded=0;orthogonalLoop=1;jettySize=auto;html=1;entryX=1.004;entryY=0.65;entryDx=0;entryDy=0;entryPerimeter=0;endArrow=none;endFill=0;" edge="1" parent="1" source="ohGMHfW5FGF4X8Y3I0PY-79" target="asvjOmH1Z3Ous6mw3SNr-5">
          <mxGeometry relative="1" as="geometry" />
        </mxCell>
        <mxCell id="pYZzTUfY7_9FYyTKPgv2-10" value="&lt;b&gt;0:N&lt;/b&gt;" style="edgeLabel;html=1;align=center;verticalAlign=middle;resizable=0;points=[];fontSize=12;" vertex="1" connectable="0" parent="ohGMHfW5FGF4X8Y3I0PY-83">
          <mxGeometry x="0.7851" y="-3" relative="1" as="geometry">
            <mxPoint x="-9" y="-6" as="offset" />
          </mxGeometry>
        </mxCell>
        <mxCell id="ohGMHfW5FGF4X8Y3I0PY-84" value="&lt;b&gt;Cliente&lt;/b&gt;" style="rounded=0;whiteSpace=wrap;html=1;fillColor=#E0D5E7;strokeColor=light-dark(#5D078C,#5D078C);" vertex="1" parent="1">
          <mxGeometry x="440" y="830" width="120" height="60" as="geometry" />
        </mxCell>
        <mxCell id="ohGMHfW5FGF4X8Y3I0PY-101" value="" style="endArrow=none;html=1;rounded=0;" edge="1" parent="1">
          <mxGeometry width="50" height="50" relative="1" as="geometry">
            <mxPoint x="620" y="1130" as="sourcePoint" />
            <mxPoint x="380" y="1130" as="targetPoint" />
            <Array as="points">
              <mxPoint x="555" y="1130" />
            </Array>
          </mxGeometry>
        </mxCell>
        <mxCell id="rBAR9IdDbAeF77ZiOYAV-1" value="&lt;font style=&quot;color: rgb(255, 255, 255);&quot;&gt;&lt;b&gt;ID&lt;/b&gt;&lt;/font&gt;" style="ellipse;whiteSpace=wrap;html=1;fillColor=light-dark(#5D078C,#5D078C);strokeColor=light-dark(#0000FF,#0000FF);" vertex="1" parent="1">
          <mxGeometry x="420" y="525" width="80" height="50" as="geometry" />
        </mxCell>
        <mxCell id="ohGMHfW5FGF4X8Y3I0PY-87" style="edgeStyle=orthogonalEdgeStyle;rounded=0;orthogonalLoop=1;jettySize=auto;html=1;endArrow=none;endFill=0;" edge="1" parent="1" source="rBAR9IdDbAeF77ZiOYAV-2">
          <mxGeometry relative="1" as="geometry">
            <mxPoint x="560" y="590" as="targetPoint" />
          </mxGeometry>
        </mxCell>
        <mxCell id="rBAR9IdDbAeF77ZiOYAV-2" value="&lt;b&gt;Fecha pedido&lt;/b&gt;" style="ellipse;whiteSpace=wrap;html=1;fillColor=#E0D5E7;strokeColor=light-dark(#5D078C,#5D078C);" vertex="1" parent="1">
          <mxGeometry x="520" y="520" width="80" height="60" as="geometry" />
        </mxCell>
        <mxCell id="ohGMHfW5FGF4X8Y3I0PY-85" value="" style="endArrow=none;html=1;rounded=0;" edge="1" parent="1">
          <mxGeometry width="50" height="50" relative="1" as="geometry">
            <mxPoint x="560" y="600" as="sourcePoint" />
            <mxPoint x="460" y="600" as="targetPoint" />
            <Array as="points">
              <mxPoint x="535" y="600" />
            </Array>
          </mxGeometry>
        </mxCell>
        <mxCell id="ohGMHfW5FGF4X8Y3I0PY-89" value="&lt;b&gt;Realiza&lt;/b&gt;" style="rhombus;whiteSpace=wrap;html=1;fillColor=#FFFFCC;strokeColor=#FFFF00;" vertex="1" parent="1">
          <mxGeometry x="460" y="720" width="80" height="80" as="geometry" />
        </mxCell>
        <mxCell id="ohGMHfW5FGF4X8Y3I0PY-99" style="edgeStyle=orthogonalEdgeStyle;rounded=0;orthogonalLoop=1;jettySize=auto;html=1;endArrow=none;endFill=0;" edge="1" parent="1">
          <mxGeometry relative="1" as="geometry">
            <mxPoint x="600" y="805" as="targetPoint" />
            <mxPoint x="635" y="800" as="sourcePoint" />
            <Array as="points">
              <mxPoint x="635" y="800" />
              <mxPoint x="600" y="800" />
            </Array>
          </mxGeometry>
        </mxCell>
        <mxCell id="ohGMHfW5FGF4X8Y3I0PY-92" value="&lt;b&gt;&lt;font style=&quot;color: rgb(255, 255, 255);&quot;&gt;DNI&lt;/font&gt;&lt;/b&gt;" style="ellipse;whiteSpace=wrap;html=1;fillColor=light-dark(#5D078C,#5D078C);strokeColor=light-dark(#0000FF,#0000FF);" vertex="1" parent="1">
          <mxGeometry x="635" y="770" width="80" height="50" as="geometry" />
        </mxCell>
        <mxCell id="ohGMHfW5FGF4X8Y3I0PY-100" style="edgeStyle=orthogonalEdgeStyle;rounded=0;orthogonalLoop=1;jettySize=auto;html=1;endArrow=none;endFill=0;" edge="1" parent="1" source="ohGMHfW5FGF4X8Y3I0PY-93">
          <mxGeometry relative="1" as="geometry">
            <mxPoint x="600" y="890" as="targetPoint" />
          </mxGeometry>
        </mxCell>
        <mxCell id="ohGMHfW5FGF4X8Y3I0PY-93" value="&lt;b&gt;Nombre&lt;/b&gt;" style="ellipse;whiteSpace=wrap;html=1;fillColor=#E0D5E7;strokeColor=light-dark(#5D078C,#5D078C);" vertex="1" parent="1">
          <mxGeometry x="635" y="860" width="80" height="60" as="geometry" />
        </mxCell>
        <mxCell id="ohGMHfW5FGF4X8Y3I0PY-94" value="&lt;b&gt;Pertenece&lt;/b&gt;" style="rhombus;whiteSpace=wrap;html=1;fillColor=#FFFFCC;strokeColor=#FFFF00;" vertex="1" parent="1">
          <mxGeometry x="460" y="920" width="80" height="80" as="geometry" />
        </mxCell>
        <mxCell id="ohGMHfW5FGF4X8Y3I0PY-97" value="" style="endArrow=none;html=1;rounded=0;" edge="1" parent="1">
          <mxGeometry width="50" height="50" relative="1" as="geometry">
            <mxPoint x="600" y="890" as="sourcePoint" />
            <mxPoint x="600" y="800" as="targetPoint" />
          </mxGeometry>
        </mxCell>
        <mxCell id="ohGMHfW5FGF4X8Y3I0PY-103" style="edgeStyle=orthogonalEdgeStyle;rounded=0;orthogonalLoop=1;jettySize=auto;html=1;endArrow=none;endFill=0;" edge="1" parent="1" source="pYZzTUfY7_9FYyTKPgv2-2">
          <mxGeometry relative="1" as="geometry">
            <mxPoint x="380" y="1130" as="targetPoint" />
          </mxGeometry>
        </mxCell>
        <mxCell id="pYZzTUfY7_9FYyTKPgv2-2" value="&lt;b&gt;Fecha suscripciÃ³n&lt;/b&gt;" style="ellipse;whiteSpace=wrap;html=1;fillColor=#E0D5E7;strokeColor=light-dark(#5D078C,#5D078C);" vertex="1" parent="1">
          <mxGeometry x="340" y="1180" width="80" height="60" as="geometry" />
        </mxCell>
        <mxCell id="ohGMHfW5FGF4X8Y3I0PY-104" style="edgeStyle=orthogonalEdgeStyle;rounded=0;orthogonalLoop=1;jettySize=auto;html=1;endArrow=none;endFill=0;" edge="1" parent="1" source="pYZzTUfY7_9FYyTKPgv2-3">
          <mxGeometry relative="1" as="geometry">
            <mxPoint x="500" y="1130" as="targetPoint" />
          </mxGeometry>
        </mxCell>
        <mxCell id="pYZzTUfY7_9FYyTKPgv2-3" value="&lt;font color=&quot;#ffffff&quot;&gt;&lt;b&gt;Id cliente&lt;/b&gt;&lt;/font&gt;" style="ellipse;whiteSpace=wrap;html=1;fillColor=light-dark(#5D078C,#5D078C);strokeColor=light-dark(#0000FF,#0000FF);" vertex="1" parent="1">
          <mxGeometry x="460" y="1185" width="80" height="50" as="geometry" />
        </mxCell>
        <mxCell id="ohGMHfW5FGF4X8Y3I0PY-95" style="edgeStyle=orthogonalEdgeStyle;rounded=0;orthogonalLoop=1;jettySize=auto;html=1;entryX=0.5;entryY=0;entryDx=0;entryDy=0;endArrow=none;endFill=0;" edge="1" parent="1" source="ohGMHfW5FGF4X8Y3I0PY-84" target="ohGMHfW5FGF4X8Y3I0PY-94">
          <mxGeometry relative="1" as="geometry" />
        </mxCell>
        <mxCell id="pYZzTUfY7_9FYyTKPgv2-14" value="&lt;b&gt;1:1&lt;/b&gt;" style="edgeLabel;html=1;align=center;verticalAlign=middle;resizable=0;points=[];fontSize=12;" vertex="1" connectable="0" parent="ohGMHfW5FGF4X8Y3I0PY-95">
          <mxGeometry x="0.4752" y="1" relative="1" as="geometry">
            <mxPoint x="9" y="-7" as="offset" />
          </mxGeometry>
        </mxCell>
        <mxCell id="ohGMHfW5FGF4X8Y3I0PY-91" style="edgeStyle=orthogonalEdgeStyle;rounded=0;orthogonalLoop=1;jettySize=auto;html=1;entryX=0.5;entryY=1;entryDx=0;entryDy=0;endArrow=none;endFill=0;" edge="1" parent="1" source="ohGMHfW5FGF4X8Y3I0PY-84" target="ohGMHfW5FGF4X8Y3I0PY-89">
          <mxGeometry relative="1" as="geometry" />
        </mxCell>
        <mxCell id="pYZzTUfY7_9FYyTKPgv2-13" value="&lt;b&gt;1:1&lt;/b&gt;" style="edgeLabel;html=1;align=center;verticalAlign=middle;resizable=0;points=[];fontSize=12;" vertex="1" connectable="0" parent="ohGMHfW5FGF4X8Y3I0PY-91">
          <mxGeometry x="0.4582" y="-2" relative="1" as="geometry">
            <mxPoint x="8" y="7" as="offset" />
          </mxGeometry>
        </mxCell>
        <mxCell id="ohGMHfW5FGF4X8Y3I0PY-88" style="edgeStyle=orthogonalEdgeStyle;rounded=0;orthogonalLoop=1;jettySize=auto;html=1;endArrow=none;endFill=0;" edge="1" parent="1" source="rBAR9IdDbAeF77ZiOYAV-1">
          <mxGeometry relative="1" as="geometry">
            <mxPoint x="460" y="600" as="targetPoint" />
          </mxGeometry>
        </mxCell>
        <mxCell id="ohGMHfW5FGF4X8Y3I0PY-98" style="edgeStyle=orthogonalEdgeStyle;rounded=0;orthogonalLoop=1;jettySize=auto;html=1;endArrow=none;endFill=0;" edge="1" parent="1" source="ohGMHfW5FGF4X8Y3I0PY-84">
          <mxGeometry relative="1" as="geometry">
            <mxPoint x="600" y="860" as="targetPoint" />
          </mxGeometry>
        </mxCell>
        <mxCell id="ohGMHfW5FGF4X8Y3I0PY-105" style="edgeStyle=orthogonalEdgeStyle;rounded=0;orthogonalLoop=1;jettySize=auto;html=1;endArrow=none;endFill=0;" edge="1" parent="1" source="pYZzTUfY7_9FYyTKPgv2-1">
          <mxGeometry relative="1" as="geometry">
            <mxPoint x="610" y="1130" as="targetPoint" />
            <Array as="points">
              <mxPoint x="625" y="1130" />
            </Array>
          </mxGeometry>
        </mxCell>
        <mxCell id="pYZzTUfY7_9FYyTKPgv2-1" value="&lt;b&gt;Bonificaciones&lt;/b&gt;" style="ellipse;whiteSpace=wrap;html=1;fillColor=#E0D5E7;strokeColor=light-dark(#5D078C,#5D078C);" vertex="1" parent="1">
          <mxGeometry x="580" y="1180" width="90" height="60" as="geometry" />
        </mxCell>
      </root>
    </mxGraphModel>
  </diagram>
</mxfile>
